<?xml version="1.0" standalone="no"?>
<!DOCTYPE svg PUBLIC "-//W3C//DTD SVG 1.1//EN" "http://www.w3.org/Graphics/SVG/1.1/DTD/svg11.dtd">
<svg t="1677936136715" class="icon" viewBox="0 0 3695 1024" version="1.1"
    xmlns="http://www.w3.org/2000/svg" p-id="9328" xmlns:xlink="http://www.w3.org/1999/xlink"
    width="721.6796875" height="200">
    <path
        d="M746.01216 7.156335l14.312671 55.890978c93.533301 22.721364 106.557831 75.356209 106.55783 75.356209 15.565029 61.079321-76.680131 131.247187-76.680131 131.247187-93.569082 69.523796-239.737228 105.877979-239.737228 105.877979-12.59515 3.148787-24.97561 5.868195-37.069817 8.194004 9.052764-70.811937 22.148857-113.427913 22.148858-113.427912 35.710113-113.714166 88.344958-113.714166 88.344957-113.714166 24.045286 0 42.222378 20.145084 42.222378 20.145083l43.546299-11.700608C640.134181 15.600811 542.664896 15.600811 542.664896 15.600811c-97.433503 0-166.313229 146.847998-166.313229 146.847997-34.751164 74.425886-51.96215 164.058984-60.51397 234.584667-17.032078-1.180795-26.550003-2.647844-26.550004-2.647844-114.358236-18.177091-130.603117-78.612342-130.603117-78.612341-12.344678-47.410721 42.866448-102.657628 42.866448-102.657629 53.922986-52.634845 151.392271-94.213153 151.39227-94.213152l-11.056537-42.866448c-166.9573 63.655601-259.882312 159.156894-259.882312 159.156894-94.213153 96.181145-72.744147 183.237962-72.744147 183.237963 25.333427 104.589839 196.190929 140.979803 196.190929 140.979803 33.491649 6.870082 68.629254 10.340904 103.552169 11.521699 10.161996 178.335873 67.34827 299.707317 67.348271 299.707317 68.879726 146.203928 166.313229 146.203928 166.313229 146.203928 81.224404 0 145.524076-107.881753 145.524076-107.881753 62.403243-107.201901 82.512545-272.87106 82.512545-272.87106l-77.932491 19.465232c-10.412468 89.02481-35.101824 143.591865-35.101824 143.591865-24.689356 54.602837-53.922986 54.602837-53.922985 54.602837-41.578307 0-70.167866-99.437277-70.167866-99.437277-18.964288-65.086868-25.333427-148.243483-27.480328-196.799217 51.45405-7.90775 85.303515-16.280663 85.303516-16.280663 214.403802-53.922986 348.87134-165.025089 348.871339-165.025089 133.859249-111.746174 107.237683-215.727724 107.237683-215.727724-16.888951-68.199874-99.437277-108.490041-99.437277-108.490041C867.526731 11.700608 746.01216 7.156335 746.01216 7.156335z m760.181704 22.757146c-1.967992 1.93221-4.544273 2.576281-4.544273 2.576281l8.444476 19.501013h-5.868195l5.868195 18.821162c3.900203 21.469006 3.900203 63.691383 3.900202 63.691383l-2.612062 11.056537-3.256133 11.664827 1.967993 21.469005c-0.64407 8.444476-10.376686 18.177091-10.376686 18.177092v10.376686c-37.713886 13.6686-42.902229 20.789154-42.90223 20.789153l-20.145083 5.868195c-9.088546 5.868195-27.945489 12.988748-27.945489 12.988748-12.344678 12.344678-25.333427 14.31267-25.333427 14.312671l-1.93221 1.28814h-1.967992v0.64407h-5.188343c7.156335-14.276889 0-29.233629 0-29.233629l-4.544273-7.800405-5.188343-19.465232c-4.580055-15.600811-7.800405-16.924733-7.800405-16.924733l-5.868195 9.124328-4.544273 11.700608h-3.900203l-8.444475 21.433224-7.800406 19.501013-10.376686 28.553777c0.64407 3.256133-11.700608 28.589559-11.700608 28.589559l-5.224124 5.188343c0 18.212873-7.764624 23.401216-7.764624 23.401216l-5.224125 13.02453c-3.900203 9.732616-4.544273 8.408694-4.544272 8.408694 0.64407 5.224125-3.256133 32.489762-3.256133 32.489762-1.93221 27.301419 7.156335 32.489762 7.156335 32.489762 3.900203 5.868195 1.967992 7.800405 1.967992 7.800405l9.732616 19.501013 3.256133-0.679852 3.900202 6.548047c6.512265 14.920959 20.145084 11.020756 20.145084 11.020756l24.689356-7.156335 5.188343 22.113076c2.612062 14.276889 7.800405 18.177091 7.800406 18.177091l18.821161 3.900203 19.501013 1.967992 18.856944-8.480257 42.222377-9.732616c27.301419-5.832413 40.934237-12.988748 40.934237-12.988748 11.056538 20.789154 9.088546 37.678105 9.088546 37.678104l-1.93221 33.777902 3.900202 14.312671 2.576281 13.632818 1.28814 63.047313 6.512265 19.465232-2.612062 7.800405v23.401216l6.512265 19.465232 1.967992 22.113075h3.900203l-1.967992-20.145083 7.156335 1.28814 1.28814 9.732616 1.967992-0.64407-1.28814-12.344678c-7.156335-2.576281-7.156335-15.565029-7.156335-15.565029 0-11.700608 5.188343-19.501013 5.188343-19.501014 3.900203 1.28814 9.732616 22.757146 9.732616 22.757146 5.224125 16.209099 5.868195 26.621567 5.868194 26.621567h13.632819v5.832413l-3.900203-3.256132c-6.476483 3.935984-7.800405 24.725138-7.800405 24.725138-0.64407 20.789154 3.256133 21.433224 3.256132 21.433224 1.93221 0 12.344678-7.800405 12.344679-7.800406l-2.612063 3.900203v1.93221h3.900203l1.93221 11.056538c4.580055 0 4.580055-26.621567 4.580055-26.621567h2.576281l4.580054 3.900203 1.932211-1.967992v-25.333427l5.188343 4.544273 6.512265-5.832413 3.900202-8.480257c1.28814-5.832413-1.93221-22.721364-1.93221-22.721364 5.188343-25.977497 5.832413-39.646097 5.832413-39.646097v-14.276889l18.821161-42.258159c5.224125-16.209099 5.868195-42.222378 5.868195-42.222377l1.932211-43.510518 7.800405-11.056538c7.156335-6.512265 7.800405-10.412468 7.800405-10.412468l14.956741-42.222377c11.700608-30.52177 19.465232-33.777902 19.465232-33.777902l37.678104-8.444476c24.725138-7.800405 22.757146-20.789154 22.757146-20.789154 12.344678 0 17.568803-53.922986 17.568803-53.922985l10.376686-53.278915 9.088546-17.533022 3.900202-40.934237 7.156336-40.290167c1.93221-18.856943-9.124327-27.945489-9.124328-27.945489-7.120553-6.512265-27.265637-11.700608-27.265637-11.700608l-1.93221 1.288141c4.544273 2.612062 14.276889 5.868195 14.276888 5.868194 9.088546 4.544273 11.020756 11.700608 11.020757 11.700608 2.612062 10.376686-3.864421 27.265637-3.864421 27.265637-5.868195 14.956741-15.600811 23.401216-15.600811 23.401216l0.64407 7.156336c-2.576281 9.088546-17.533021 26.621567-17.533021 26.621566l-20.789154 28.58956-18.212873 11.700608c-24.689356 0.64407-32.489762 8.444476-32.489762 8.444475l-3.22035-2.612062c-3.900203-5.832413-3.900203-35.710113-3.900203-35.710113l-2.612062-23.401216c3.900203-5.868195 3.900203-9.732616 3.900202-9.732616v-13.02453c6.512265-7.764624 44.83444-22.077294 44.83444-22.077294 34.457754-14.276889 38.322175-27.945489 38.322175-27.945489l1.967992 1.967993c-0.64407 5.832413 5.188343 7.156335 5.188343 7.156335 0-9.768398 6.476483-9.768398 6.476483-9.768398l13.668601 2.612063v-1.967993l-22.077294-9.732615c0 5.188343-3.900203 5.188343-3.900203 5.188343l-8.480257-1.288141-0.608289 3.900203 3.220351 1.93221-4.544273 7.156336h-1.93221c0-3.256133-12.38046-3.256133-12.38046-3.256133l3.900203-14.276889c-11.020756-5.188343-11.700608 4.544273-11.700608 4.544273h-1.288141l-1.93221-3.900202h-1.967992l-0.644071 3.256132h-7.800405l-5.188343 5.832413-5.832413-1.93221 3.900203-3.900203-3.900203-7.800405c7.764624 0 11.664826-9.088546 11.664826-9.088546l-48.05479 3.256133c0 6.476483 13.632819 4.544273 13.632818 4.544272 14.956741-1.967992 16.888951 3.220351 16.888951 3.220351l-14.920959-1.28814-13.6686 1.967992-1.93221 5.832413-3.900203-2.612062-3.900203-3.220351-9.768397-3.900203c-5.832413 3.900203-9.088546 3.220351-9.088546 3.220351l-6.476483-3.900202-6.512265-6.476484c-7.800405-5.868195-42.222378-64.335453-42.222378-64.335453-25.333427-42.222378-69.523796-44.154588-69.523796-44.154588z m843.338319 25.011391c-1.07345 0-2.146901 0-3.220351 0.357817l-51.88343 7.800406s-36.497309 3.900203-46.158362 14.920958l-13.23922-1.28814-13.597037 3.256133-1.789084 1.93221-24.689356 2.612062-19.679922 3.900203h-6.798518l-25.40499 9.088546-22.900273 11.056538-22.900272 8.444475s-20.037738 16.888951-30.414425 14.920959c0 0-44.011461 11.056538-61.544482 21.469005 0 0 0 1.28814 11.450136 3.864421 0 0 11.807953 3.256133 13.23922 9.768398l12.881403 3.900203s31.130058 5.188343 48.66308-6.512265c0 0 3.935984 1.967992 26.120623-7.800406 0 0 4.293801-5.832413 15.743937-5.832413l13.597037-7.800405 17.533021-5.188343 25.047173-9.768398 26.120624-7.120553 23.258089-2.612063 9.661053-3.900202 26.836256-1.288141 26.836257 1.288141 10.01887 0.64407 11.092319 3.900203 7.871969 11.700608 9.303236 16.888951s-5.367251 25.333427 0 30.557551c0 0-3.935984 7.764624-6.082885 57.823188L2329.494444 289.831575l-3.935984 38.322174 3.220351 53.922986s0 10.376686-5.367252 27.945489c0 0 6.082885 27.265637 0 33.133832 0 0 13.23922 81.868474 11.09232 86.412747l-7.156335 17.533021-5.725069 16.888951-0.715633 9.768398 2.504717 3.22035-1.789084 11.700608 1.431267 11.056538s-1.431267 8.444476-5.367251 8.444476l-9.661052-6.512265-7.871969-9.088546v-0.64407s-16.817388-14.276889-24.689357-10.376686c0 0 0 24.009505 15.386121 48.054791l3.578168 1.967992s1.789084 11.020756 20.037738 39.646097l1.789084 3.900202 15.028304 44.154588s11.09232 15.600811 54.03033 35.066043l3.935985-0.608289v-3.256132s3.935984 0 12.881403-10.412468c0 0 11.807953-14.956741 12.881403-31.845692v-33.09805l3.935985-23.401216v-24.045286l-5.725068-21.433224s-3.220351-16.888951 3.935984-19.501013c0 0 0-34.421972-3.220351-36.389964 0 0 5.725068-26.621567 1.789084-57.179119l1.431267-24.045286v-24.689356l-3.935984-53.922986-1.431267-55.211125-1.789084-49.378713-6.082885-46.802432s2.146901-13.632819 5.367251-18.821162c0 0-1.789084-7.800405 0.715634-32.489761 0 0-8.587602-0.64407-3.935985-31.201622l5.725069-37.678104s-1.789084-9.732616-18.606472-31.16584l-24.331539-26.657349s-11.09232-5.97554-19.322105-6.154448z m1166.84045 6.154449l-7.871969 1.967992-12.16577 20.789154-0.715633 1.93221-7.156336-1.93221-8.229785 5.832413 0.357817 0.64407-4.293801 3.256132-15.028304 11.056538s-9.303236 8.444476-2.146901 6.476484h2.146901l-3.935985 3.256132-18.964288 6.512265-1.789084 5.832413 5.009435 1.967992 10.376686-2.612062 7.156335-9.088546 7.514152 1.288141 4.293801-1.288141 21.469006-1.967992s1.431267 3.900203-19.679922 3.900203l-11.450136 5.188343 7.156335 3.900203 21.826822 2.612062s7.514152 1.28814 17.175205 9.088546l12.881403 13.6686-9.661053 11.020756-8.587602 3.900203-8.229785 0.64407-33.992592 7.156335-26.120624 1.967992-20.753372 5.832413-43.295827 5.188343-18.248655 5.868195-11.09232 6.476483h-1.789083l-2.146901-3.900202-5.367251 5.224124s-1.789084 3.900203-1.789084 9.732616c0 0 0 8.444476 5.367251 11.700608l11.807953 3.256133s7.514152 3.864421 11.450137 3.864421l24.689356-7.120554 26.47844-5.224124 24.689356-6.476484 40.433294-5.832413 127.275421-3.256132 32.561325-4.544273 9.661053 1.93221 9.303235 0.64407s11.450136-5.832413 15.386121-3.900202l1.431267-6.476484v-12.988748l7.871969-5.224125s15.386121-10.376686 9.661052-18.177091l-20.753372-5.868195-23.615906 0.679852h-33.634775s-12.523587 0-11.807953-6.512265l1.431267-9.088546s-3.935984-11.700608-2.146901-15.60081l-1.07345-20.145084-12.881403-9.732616-7.764624-0.64407-8.587602-7.156335-36.49731-15.600811z m-751.77301 57.179118l-1.789084 21.433224s-11.09232 17.533021-13.597037 26.657348c0 0-9.303236 69.523796-15.028304 76.64435l-11.092319 9.768397-12.16577 5.832414-13.954854 9.088545-33.634775 24.045286-0.715634 1.288141 13.954854 1.967992 7.514152 8.444475 15.743937-4.544272 16.817388-1.967993 0.715633 12.988749 3.220351 4.580054-11.092319 17.533021s0 14.956741-52.599064 50.022783c0 0-1.789084-5.832413 0-25.977496l3.935985-26.657349-1.431267-11.020756-7.871969-13.6686s-8.945419-11.700608-9.661053-16.888951c0 0-11.09232-1.93221-11.807953-11.700608l-5.725068-11.664827s-1.789084 0-5.367251 11.664827l-5.725068 13.6686-1.789084 7.120553-2.146901 0.679852s0 5.832413-7.871968 16.209099l-7.514152 13.668601s-2.146901 8.444476 0 46.76665l-3.220351 38.322175-6.082885 37.678104-7.514152 25.369209s-6.082885 12.988748 0 27.265637c0 0 2.862534 5.868195 15.386121 13.02453 0 0 12.523587 5.832413 18.964288 7.120553l7.514152 8.480257s3.935984 9.732616 7.514152 11.020757l19.322105 13.632818 18.964288 3.256133 15.386121 5.868194 11.092319 44.83444s9.661052 38.322175 22.184639 42.222378h1.07345s1.07345 3.900203 7.871969 9.088545l9.661053 5.832414s17.890838 11.73639 31.487874 15.60081l34.350409 5.224125 30.056608 0.64407 34.350409 3.256133s28.983157-3.256133 32.203508-9.124328l30.056608-3.864421s32.561325-7.800405 30.414424-11.056538l3.935985-0.679851 58.681948-14.920959 14.31267-5.868195h-2.862534l2.862534-5.832413h1.789084l-0.715633-3.900203h2.1469l1.789084 1.932211 0.715633-1.932211-0.715633-1.967992 2.862534-3.864421-2.862534 0.64407 4.651618-8.444475 7.156335-7.156336h0.715634v3.900203l5.009434-6.512265h1.431267v0.679852l-2.504717 1.93221 1.07345 1.932211s-1.07345 1.967992 1.431267 1.323922l0.715634-3.900203 2.862534-1.967992 1.07345 0.679852 2.862534-3.900203 2.146901-0.679852v-5.832413l-3.935985-1.967992-2.1469 2.612062v-4.544272l-1.789084-1.288141v1.932211l-1.789084-0.64407v-3.256133l-2.504717-2.612062 4.293801-3.220351-1.07345-1.967992-5.367252 5.188343 2.146901-6.476484h3.220351l1.07345-1.93221-8.229785-0.679852-2.862535 1.967992-1.07345-1.28814 1.07345-4.580055-5.725068-1.28814 3.935985-1.93221-2.146901-1.967993v-1.93221l2.862534 1.28814v-1.28814l-3.935984-3.900203-0.715634 1.288141-3.220351-3.900203-0.715633-1.28814-3.935984 1.28814-1.073451-1.932211v2.576281h3.220351v5.868195h-1.431267l-3.935984-7.800405-1.789084-0.644071-2.146901 0.644071 3.935985-2.612063h1.431267l-7.156335-1.28814s-3.935984 0-4.651618 3.256132l-7.156335 3.900203-11.09232 7.764624-11.807953 2.612062-11.450136 5.188343-38.286393 7.156335-32.561325 9.732616-11.807953 1.967992-62.97575 6.512265-16.101754-5.868195s-3.220351 0-5.367252-2.612062l-1.789083-7.120553s-13.23922-26.657349-11.09232-33.133832l18.248655-24.045286 9.661052-8.444476s6.440702-5.188343 17.533022-3.900203l11.092319-1.967992 13.597037-1.93221 8.587602-5.188343 10.734503-1.967993 11.092319-2.57628 10.376686-2.612063 44.369278-5.868194 5.725069-4.544273 5.367251-7.764624 8.945419-13.02453s10.018869-7.764624 10.376686-15.565029v-9.768397l3.578168-11.700608-10.01887-22.721365-10.376686-21.433223 18.964288-48.090573 3.220351-12.344678s2.504717-9.732616 5.725068-9.732616l2.504718-13.6686 3.578167-14.920959s3.935984-8.444476 2.504718-13.6686l-2.146901-12.344678 2.146901-8.444476-2.504718-9.732616s-3.935984-5.832413-3.935984-9.732615l-9.661052-14.312671-7.871969-22.113075s-3.935984-9.732616-20.395555-16.2091l-2.504718 1.932211-15.028304-5.832413s-9.661052-6.512265-18.606471-3.900203l-20.395555-3.256132-35.423859 16.888951-39.002027 21.433223h-11.807953l7.871969-50.022782s1.789084-26.621567-26.120624-39.610316l-15.743937-7.800405z m-1049.83437 19.501013l-5.224125 3.900203v1.28814l5.224125 1.932211 6.476483-1.932211 3.256132-1.93221 6.512265 0.64407s7.800405 1.93221 14.276889 0h1.967992z m19.465231 11.700608v7.764624l1.967992 1.323922 0.644071-3.900203z m3.900203 0v3.220351h9.124327z m491.175065 14.920959l-16.817388 4.544273-18.964288 3.900202-35.781676 7.800406-18.248655 10.412467-15.38612 3.900203s-2.504717 1.93221-6.440702 2.576281l-7.156335 1.323922-7.156335 1.93221-26.120624 11.700608-12.881403 7.800406-8.945419 1.93221-2.862534 1.967992-1.07345 1.288141-4.651618 5.832413-8.945419 4.580054-11.09232 7.800406s-20.395555 0-16.459571 14.920959h3.935985s0 2.612062 24.689356 12.988748l0.715634 11.700608s1.789084 8.444476 7.871968 12.344678h25.762807l8.587602 1.28814h13.597037s3.935984 0 3.935984 2.612063l1.789084 12.988748 1.431267 9.768398-1.431267 14.920958-4.293801 9.768398-11.09232 1.93221-8.587602 5.224125-24.689356 9.732616-9.661053 7.764624-15.028304 9.768397-7.871968 7.800405 0.715633 3.220351v2.647844l-7.514152 7.120554 1.073451 7.800405 2.504717 1.967992 9.303236 8.408694 12.881403 1.967992 5.725068 10.412468 7.871969 7.764624 9.661052 1.967992 7.871969-1.323922-1.07345 5.868195s-2.862534 5.868195 0 5.868194l-3.935985 12.988749-4.651617 9.088545-2.146901 4.544273-11.450136 9.088546-6.082885 7.800405-5.725068 10.412468v4.544273l-4.293801 9.732616-3.935985 5.832413v7.800405l5.009435 14.312671 6.082885 9.088545s3.578168 5.188343 5.009434 3.900203c0 0 0 1.28814 6.440702 3.900203 0 0 13.597037 1.93221 21.469006 0l26.47844-5.868195 15.028304-7.764624 26.836256-9.124327 5.725069-4.544273s3.935984 0 19.679921-11.700608c0 0 3.220351 1.967992 10.734503-5.832413 0 0 0 0.64407 10.376686-5.188343l9.303236-2.612063s5.009435-1.93221 9.661052-5.188343l12.881404-3.900202 17.533021-11.700608 13.23922-11.056538s6.440702-3.900203 8.229785-11.664827l3.220351-5.868194 2.146901-3.256133h-7.871969s-5.367251 0-1.789084-7.764624l4.293801-8.480257-15.38612-1.28814s-10.018869 0-10.01887-3.900203l-27.194073 1.932211 2.862534-10.376686 1.07345-8.444476 3.935984-10.376686s-3.220351 0-3.22035-5.868195l3.935984-3.256132 7.156335-0.64407 15.386121-22.077294 17.175204-17.568803 0.357817-4.544273 3.935984-7.764624v-8.480257l-1.789084-9.732616-10.376686-10.412467-18.964288-12.988749-7.871968-3.900202-3.220351-3.220351-6.440702-4.580055 1.789084-3.22035s0-8.444476 4.651618-18.212873l19.679921-20.789154s5.009435 0 14.312671-18.821162l6.440701-8.444475 1.789084-8.480257-0.715633-8.408694 2.1469-5.868195-1.431267-9.088546-9.661052-16.888951-4.651618-6.512265s0-7.800405-12.881403-7.800405z m1018.704312 14.31267l-3.935985 12.344678v5.832414s-7.871969 23.401216-7.871968 34.421972l-12.881404 20.180865-1.789084 7.120554-3.935984 7.800405-11.092319 23.401216-17.533022 38.322175-9.661052 11.700608-15.028304 22.721364-4.293801 14.95674-5.367251 15.600811 1.431267 14.956741 0.357816 22.721364s3.578168 1.967992 5.367252 2.57628l6.440701 9.768398 1.431267 20.789154-1.431267 21.433223 3.220351-4.544272 2.504718-7.800406v-1.28814h1.431267l0.715633 1.28814-2.1469 3.900203 1.431267 1.967992h1.789083l3.220351-5.868195 6.082885-18.177091 10.376686-11.700608 5.725068-3.900203 40.433294-38.966245s11.807953-3.900203 18.606471 12.308897l2.146901 14.95674 3.935984 29.269411v37.642323l-4.651618 21.469006-4.651617 38.322175-5.725069 17.533021-7.871968 45.514291-0.715634 48.698861s0 20.789154 19.679922 22.757146l8.945419-10.412468s14.31267 0.679852 8.587602-7.120553v-7.836187l7.871969-5.832413h7.156335l9.661053-15.600811 3.935984-29.877699 5.725068-64.979524 1.789084-22.077294 3.935984-22.113075 7.514152-86.412748s-3.578168-19.465232-2.1469-27.265637l5.725068-13.6686s2.504717-5.832413 2.504717-21.397442l-1.789084-7.156335-5.725068-5.224125-6.082885-6.476483s-4.293801-1.967992-10.018869-5.188343l-18.964288-8.480257-11.807953 2.612062 2.504717-11.700608 3.935984-9.732616 1.431267-19.501013 2.504718-9.732616s1.431267-12.988748-6.440702-29.877699l-13.597037-27.301419-1.431267-7.800405-6.440702-16.888951z m-1273.469845 1.932211l-2.504717 10.412467-5.725068 17.533022s-3.220351 9.732616-2.146901 20.789153l2.146901 7.800406v27.301418l1.789084 16.888951-3.220351 12.344679-0.715634 20.789153-3.578167 9.088546-6.082885 24.689356 2.146901 4.544273v20.789154l-3.578168 11.700608v9.088545l-1.789084 18.177092-3.220351 13.02453-2.504717 40.934237h-1.431267l-2.146901 12.344678-4.293801 10.376686s-2.146901 14.956741 1.789084 24.045286l0.715634 12.344679 1.431267 16.888951s0.357817 9.088546-3.578168 13.632818l-1.789084 15.600811s-1.789084 35.745894 18.964288 53.278915c0 0 7.156335 6.512265 12.881404 4.544273l4.651618-5.832413s7.514152-10.412468 7.514152-29.233629l-2.146901-31.201622-2.146901-9.088545 3.935985-29.23363s0-12.988748 1.789084-18.177091c0 0-9.661052-6.512265-3.220351-37.713886l1.431267-18.177092 0.357817-11.700608s2.146901-9.732616 3.578167-9.732616l1.789084-9.768397 2.146901-7.156335 9.661052-46.12258 8.945419-26.621567V335.274303l-3.935984-7.156335v-10.412468l2.862534-7.120553 3.220351-15.600811h-1.431268l1.431268-11.700608-1.431268-11.700608s-4.651618 0-4.651617-31.80991l-5.725069-18.856943-5.009434-5.868195-6.082885-11.664826-5.725068-18.212873z m1542.548047 54.567055l-20.753372 5.868195-19.679922 7.800406s-3.935984 0.64407-5.725068 5.832413c0 0-2.504717 6.512265 1.431267 13.6686 0 0 4.293801 5.832413 12.16577 7.764624l24.689356 13.02453 6.082885 5.832413 34.350409 15.600811 16.817388 3.900202h23.150744l7.871969 3.220351s3.935984 1.967992 7.156335 0c0 0 4.651618-3.220351 12.523587-18.821161l5.009434-5.868195v-7.764624l0.715634-9.124327-8.587603-7.764624-5.009434-13.02453s-8.587602-2.576281-12.523587-4.544273l-7.871968-7.800405-8.229786-3.900203h-19.21476s-13.954854 0-19.679922-3.900203z m-631.546579 1.967993l29.340974 6.512265-0.715633 3.900202 5.725068 7.764624V261.206234s0 5.188343-7.871969 12.988748h-10.734503s-30.772241 21.433224-49.020896 25.333427l-14.670487 1.967992h-7.156335s-7.871969 1.93221-16.459571 0c0 0-12.16577-1.967992-14.31267-8.480257l2.146901-13.632819s3.220351-9.732616 5.725068-11.020756c0 0 0-5.224125 9.303235-9.124327l8.945419-3.900203s7.871969-3.864421 22.184639-7.764624l11.09232-5.868195 14.670487-3.900202zM1499.717381 268.362569l7.764623 31.16584 4.544273 20.789153c3.900203 12.988748 1.967992 21.433224 1.967992 21.433224l-12.344678 18.212873-14.95674 19.465232c-17.533021 11.056538-30.52177 14.956741-30.52177 14.95674l-33.133832 4.544273c-16.244881 1.967992-34.457754 18.856943-34.457754 18.856943-18.177091 15.565029-24.689356 14.956741-24.689356 14.956741-3.220351 1.93221-7.120553 2.576281-7.120553 2.576281-3.935984-9.732616 3.900203-15.600811 3.900202-15.600811-2.612062-3.900203 1.93221-14.920959 1.932211-14.920959l9.768397-11.700608 7.120554-13.6686 3.900202-16.888951c7.156335-4.544273 5.868195-9.732616 5.868195-9.732616l33.777902-39.002027 40.934237-18.177091c29.233629-12.344678 35.745894-27.265637 35.745895-27.265637z m2030.967922 65.587812l-44.727095 3.256132-39.71766 6.512265-0.715634 4.544273s-1.789084 3.900203 0 8.444476l6.440702 12.988748 10.018869 12.344678 18.248655 14.956741s4.293801 5.188343 13.597037 7.156335l19.322105 0.64407 16.817387 3.256133s7.871969 0.64407 21.469006 8.408693l13.954854-1.93221h9.661052l9.553707-4.544273s10.376686-1.93221 11.09232-3.256132c0 0 5.009435-1.93221 9.661052-10.376686l5.725069-14.956741v-5.868195l1.431267-5.188343s0.715634-3.900203 5.725068-5.832413l6.440701-3.900203v-13.632818s0-1.967992-9.661052-3.900203l-12.16577-1.323922-13.954853 1.967992-37.463415-8.444475z m-1260.946258 11.056538l4.293801 13.632818s1.431267 11.056538-11.450136 25.369208l-3.935984 5.188343-0.715634 1.932211-3.935984 7.800405-1.789084 9.124328-6.082885 3.900202-1.789084 3.864421 1.789084 0.64407s6.440702 1.967992 17.533021-3.900202l10.376686-2.576281 12.523587-1.28814 8.229785-0.64407 5.367252-1.323922s11.807953 3.900203 20.753372-9.732616l2.1469-17.568803-2.1469-9.732616-3.220351-7.156335-3.935984-1.932211-5.725068-2.612062-13.597037-1.28814-2.146901-1.967992-12.881403-5.832414z m621.52771 3.900202l2.146901 1.932211s3.220351 3.291914 1.07345 7.156335l-6.440702 31.201621-4.293801 7.800406s-5.367251 7.156335-31.487875 18.821161c0 0-26.47844 17.533021-41.506744 6.512265l-5.367251-13.632818 3.578168-10.412468s-1.431267-9.088546 1.431267-14.276889l8.229785-9.768397 21.469006-11.700608 27.909707-9.732616z m-211.111887 67.555804l12.881403 5.224125s6.082885 5.832413 2.1469 23.365434l-7.871968 24.045287-1.073451 4.580054-6.082884 9.088546-13.597037 2.57628s-3.935984 0-16.817388 7.156336c0 0-5.725068 3.900203-13.23922 6.476483l-4.293801 5.224125-1.431267-1.323922 5.367251-16.2091-2.1469-9.768397 2.504717-9.088546 1.431267-9.088545 7.871969-21.469006 3.220351-9.732616h0.715633s7.156335 0 16.817388-5.832413l13.597037-3.900203z m894.18408 31.845692l-30.414425 20.789154-61.186666 29.877699-7.871968 3.256132-7.871969 1.967993s-7.871969 0-11.09232-3.256133l-6.440701-7.800405-5.725068-6.476484-3.935985-9.768397-11.807953-5.188343-12.16577-5.188343s-5.725068-2.612062-8.587602-8.444476l-3.220351-3.900202-4.651617 1.93221-3.935985 24.689357-1.07345 19.501013 5.725068 26.621567s-2.504717 15.600811-0.715633 29.233629l0.715633 31.201621-0.715633 22.757146 10.734502 43.510518 1.789084 4.544273v16.244881s1.789084 8.444476 8.945419 11.700608l11.807953 2.612062 15.386121 7.156335 5.367251 6.476484s2.504717 3.900203 6.440702 3.256132c0 0 3.220351-1.323922 3.220351-9.732616l7.871968-13.6686 1.431267-14.95674 3.935985-15.565029 2.504717-11.056538 5.725068-53.278916-2.504717-7.800405-5.367252-7.800405 1.431267-10.376686v-9.768398l2.146901-1.28814 28.983157 1.28814 11.09232-12.344678s16.101754-15.565029 26.47844-19.465232l4.651618 7.120554s3.935984 10.412468 1.431267 26.657348l-22.184639 25.333427-13.597037 13.632818s-8.587602 7.156335-10.376686 15.600811l-4.651618 3.256133-0.357816 6.476483-1.431268 18.212873s0 15.600811 1.789084 19.465232l8.587602 5.868194 9.661053 3.900203 7.871969 6.512265 31.130058 2.576281 32.45398-6.476484 18.606471 3.900203 25.047173-0.64407 10.018869-5.868195 7.871969-3.256132 7.156335-7.800406v-10.376686l2.146901-24.045286-9.303236-4.544273-1.789084-1.28814-10.376686-8.480257-1.431267-7.800406 15.028304-39.610315 0.715634-21.433224s-2.504717-5.188343 1.07345-15.60081V500.943462l-11.09232-12.344678-11.450136-17.533021-13.597037-11.056538-6.082885-5.188343-15.38612-3.900203-16.101754 1.288141z m-1291.718499 96.825215s-5.367251 3.900203-26.120624 9.088546l-19.322105 7.800405-6.082885 1.28814-17.533021 6.512265-20.037738 3.256133-27.194074 11.664826-13.597037 2.612062-13.597037 6.476484-7.871968 0.679852-18.964288 3.900202s-15.386121 7.800405-19.322105 9.088546l-9.303236-1.967992-15.386121 2.612062-15.028304 3.900203h-22.542455l-10.734503 1.967992-11.450136-0.679852 12.165769 27.301419s12.16577 22.721364 16.101754 23.401216l11.807953 3.220351 18.248655-5.188343s12.881403-2.612062 15.028304-6.512265h3.935984s16.817388-3.864421 20.753372-9.732616l20.753372-5.188343 19.679922-9.088546 8.945419-2.612062 14.31267-7.156335 15.386121-9.732616 40.433294-28.589559s16.101754-10.376686 53.314697-27.945489l8.945419-8.444476v-1.93221z m-747.837026 189.714445s-1.93221 5.832413 2.612062 17.533021l3.256133 11.056538h1.28814l2.576281-5.832413v-11.700608h-1.932211l-0.64407 0.64407 1.932211-6.512265z m59.79118 3.256133l-0.679851 26.621567s4.580055 0 4.580054-12.344679c0 0 1.28814-11.700608-3.900203-14.276888z m-44.834439 7.800405s-5.224125 4.544273-1.323922 25.333427h1.967992l1.28814-1.967993s1.967992-19.465232-1.93221-23.365434z m-155.292474 67.555804c-46.12258 0-76.680131 24.689356-76.680131 24.689357-30.52177 23.401216-30.52177 63.047313-30.52177 63.047312v7.764624c0 42.258159 29.233629 63.691383 29.23363 63.691383 30.52177 21.433224 78.612342 21.433224 78.612341 21.433224l33.777902-1.967992 19.501014-5.832413v-25.977497l-19.501014 4.544273-30.521769 3.256132c-24.689356 0-41.578307-14.956741-41.578307-14.95674-14.31267-15.600811-14.31267-47.446502-14.312671-47.446502v-1.932211c0-30.52177 15.600811-46.12258 15.600811-46.12258 16.244881-16.244881 44.83444-16.244881 44.83444-16.244881l26.621567 1.932211 18.856943 4.544272v-27.265637l-20.789154-5.188343z m1729.399958 0c-46.873995 0-77.28842 24.689356-77.28842 24.689357-30.414424 23.401216-30.414424 63.047313-30.414424 63.047312v7.764624c0 42.258159 30.414424 63.691383 30.414424 63.691383 28.625341 21.433224 77.28842 21.433224 77.28842 21.433224l33.992592-1.967992 19.322105-5.832413v-25.977497l-19.322105 4.544273-30.772241 3.256132c-23.258089 0-41.506744-14.956741-41.506744-14.95674-14.31267-15.600811-14.31267-47.446502-14.31267-47.446502v-1.932211c0-29.233629 16.459571-46.12258 16.459571-46.12258 16.817388-16.244881 45.442728-16.244881 45.442728-16.244881l26.836257 1.932211 17.175204 4.544272v-27.265637l-20.753372-5.188343z m174.972395 0s-47.947446 0-72.278985 24.689357c0 0-25.762807 24.689356-25.762807 61.72339v9.732616s0 40.290167 27.909708 63.047313c0 0 25.047173 21.433224 69.416451 21.433224 0 0 44.369278 0 69.416451-21.433224 0 0 27.909707-22.757146 27.909707-63.047313v-9.732616s0-37.034035-25.762806-61.72339c0 0-23.258089-24.689356-70.847719-24.689357z m-1815.383325 3.256133v174.757705h53.314697v-74.71214h61.043539v74.71214h52.634845v-174.757705h-52.634845v72.744147h-61.043539v-72.744147z m222.204207 0v174.757705h53.314697v-174.757705z m105.269691 0v174.757705h38.322175V881.660493l117.43546 109.813964h22.900272v-174.757705h-36.855126v103.945768l-113.213222-103.945768z m278.8466 0l-79.435321 174.757705h42.938011l17.533022-41.578308h78.719686l16.817388 41.578308h55.103781l-82.297855-174.757705z m214.332238 0v25.333426h52.599064v149.424279h53.314697v-149.424279h51.167796v-25.333426z m181.770914 0v174.757705h148.851771v-25.333427h-95.894891v-49.378713h70.132085v-26.621566h-70.132085v-48.090573h90.169823v-25.333426z m182.844363 0v174.757705h140.26417v-25.333427h-87.665106v-149.424278z m175.330212 0v174.757705h150.640855v-25.333427h-97.326158v-49.378713h69.416451v-26.621566h-69.416451v-48.090573h90.169823v-25.333426z m580.020966 0v174.757705h35.781676v-100.045566l68.343001 100.045566h28.62534l71.09819-100.045566v100.045566h48.305263v-174.757705h-34.708226l-90.062478 127.346984-88.380739-127.346984z m-125.951499 22.757146s28.625341 0 35.066042 14.276888c0 0 7.871969 17.533021 7.871969 48.054791v5.224125s0 31.16584-10.018869 48.090572c0 0-9.661052 14.920959-32.919142 14.920959 0 0-27.194074 0-35.066043-14.276889 0 0-8.229785-11.700608-8.229785-48.734642v-5.224125s0-35.066042 8.945419-48.698861c0 0 7.156335-13.632819 34.350409-13.632818z m-1189.025089 20.109301l30.056607 64.979524h-57.250681z"
        p-id="9329" fill="#ffffff"></path>
</svg>