<?xml version="1.0" encoding="utf-8"?>
<svg version="1.1" id="图层_1" xmlns="http://www.w3.org/2000/svg"
    xmlns:xlink="http://www.w3.org/1999/xlink" x="0px" y="0px"
    viewBox="0 0 2500 686" style="enable-background:new 0 0 2500 686;" xml:space="preserve">
<g>
	<path fill="#FFFFFF" d="M760.8,644.7c-20.1-3.1-40.1-6.4-60-10c-9.1-1.6-18.2-3.3-27.2-5c-8.6-1.6-17.2-3.3-25.7-5
		c-23.4-4.6-46.7-9.6-69.9-14.9c-26.9-6.1-53.7-12.8-80.4-19.9c-11.9-3.2-23.8-6.5-35.7-9.9c-5.6-1.6-11.3-3.3-16.8-5
		c-5.5-1.6-10.9-3.3-16.3-5c-5.2-1.6-10.4-3.3-15.7-5c-9.9-3.2-19.8-6.5-29.7-9.9c-4.7-1.6-9.4-3.3-14.1-5c-4.6-1.6-9.1-3.3-13.5-5
		c-4.4-1.6-8.7-3.3-13-5c-16-6.2-31.8-12.8-47.5-19.9c-3.6-1.6-7.1-3.3-10.7-5c-19-8.9-37.4-18.8-55.2-29.9
		c-15.5-9.7-29-19.7-40.1-29.8c-10.7-9.8-19.3-19.7-25.5-29.8c-6-9.8-9.7-19.8-10.8-29.8c-0.3-2.3-0.4-4.6-0.4-6.9
		c0-7.7,1-15.4,2.9-23c2.7-10.5,7-20.5,12.6-29.8c6-10.1,13.6-20.1,22.9-29.8c10.5-10.9,21.9-20.9,34.1-29.9
		c13.7-10.2,29.3-20.2,46.5-29.8c19.7-11,40-20.9,60.7-29.8c25.7-11,51.8-21,78.2-29.8c31.5-10.6,65.5-20.6,101.7-29.9
		c45.5-11.6,91.4-21.5,137.6-29.8c67.4-12.2,139.7-22.3,216-29.8c103.7-10.2,214.5-15.8,329.5-15.8c97.6,0,194.5,5.7,287.5,15.8
		c70.6,7.6,138.9,17.8,203.3,29.8c48,9,94,19,137.2,29.8c35.7,8.9,71,18.8,106.1,29.9c28.6,9,56.8,18.9,84.7,29.8
		c22.9,8.9,45.5,18.9,67.5,29.8c15.1,7.5,29.9,15.7,44.1,24.6c-17.9-9.1-36.2-17.3-54.8-24.6c-28.6-11.2-57.6-21.2-87-29.8
		c-38.4-11.3-77.3-21.3-116.4-29.8c-54.2-11.8-108.7-21.8-163.6-29.9c-96.4-14.4-199.9-24.6-305-29.8c-51.1-2.5-102.2-3.8-153.4-3.8
		c-51.6,0-102.3,1.3-151.6,3.8c-101.4,5.2-197.4,15.4-285,29.8c-49.1,8-97.8,18-146,29.9c-34.6,8.5-68.8,18.5-102.5,29.8
		c-26.1,8.7-51.7,18.7-76.9,29.8c-20,8.8-39.4,18.8-58.3,29.8c-15.2,8.9-29.7,18.9-43.4,29.9c-11.1,8.9-21.4,18.9-30.5,29.8
		c-7.6,9.1-14,19.1-19,29.8c-4.4,9.4-7.2,19.5-8.3,29.9c-1.2,10-0.3,20.1,2.6,29.8c3,10.2,8,20.1,15,29.8
		c7.3,10.2,16.7,20.2,27.9,29.8c11.9,10.3,25.8,20.2,41.5,29.9c2.7,1.7,5.4,3.3,8.2,5c2.8,1.7,5.7,3.3,8.7,5
		c6.1,3.4,12.3,6.7,18.5,9.9c6.7,3.4,13.4,6.7,20.1,9.9c3.5,1.7,7,3.3,10.6,5c3.7,1.7,7.3,3.3,11.1,5c3.8,1.7,7.6,3.3,11.5,5
		c3.9,1.7,7.9,3.3,11.9,5c8.3,3.4,16.7,6.7,25.1,9.9c4.4,1.7,8.7,3.3,13.2,5c4.5,1.7,9,3.3,13.6,5l14,5c4.8,1.7,9.7,3.4,14.6,5
		c4.9,1.7,9.9,3.3,14.8,4.9c10.4,3.4,20.9,6.7,31.3,10c11,3.4,22,6.7,33,10c5.7,1.7,11.5,3.3,17.2,5l17.7,5
		c12.2,3.4,24.5,6.7,36.7,9.9c6.4,1.7,12.7,3.3,19.1,5l1.8,0.4L760.8,644.7L760.8,644.7z"/>
	<path fill="#FFFFFF" d="M783.5,51c88.2-6.8,176.6-10.2,265-10.1C1173.3,40.9,1298,48,1422,62c52.7,6,105.3,13.3,157.6,22.1
		c20.9,3.5,41.6,7.2,61.8,11.1c34.7,6.6,69.2,14,103.6,22.1c28.6,6.8,57.1,14.1,85.4,22.1c12.8,3.6,25.3,7.3,37.5,11.1
		c22.3,6.9,44.4,14.2,66.4,22.1c19.1,6.9,37.9,14.2,56.6,22.1c16.3,6.8,32.3,14.2,48.1,22.1c13.7,6.8,27.1,14.2,40.3,22.1
		c6.1,3.7,11.8,7.3,17.4,11c5.5,3.7,10.7,7.4,15.7,11.1c4.8,3.6,9.3,7.1,13.5,10.7c-5.9-3.7-11.9-7.3-18-10.7
		c-6.8-3.8-13.6-7.5-20.5-11.1c-7.5-3.8-15-7.5-22.6-11c-17-7.9-34.2-15.3-51.7-22.1c-20.2-7.9-40.6-15.3-61.2-22.1
		c-11.2-3.7-22.6-7.4-34.4-11c-25.9-8-52-15.3-78.3-22.1c-14.9-3.9-29.8-7.5-44.8-11.1c-34.7-8.2-69.5-15.5-104.5-22.1
		c-21-4-42-7.6-63.1-11.1c-56.3-9.1-112.8-16.5-169.5-22.1c-52.2-5.2-105.6-8.9-159.5-11.1c-34.1-1.4-68.2-2.1-102.4-2.1
		c-40.7,0-80.9,0.7-120.5,2.1C1012.8,86.2,952.3,90,894,95.2c-34.7,3.1-69.3,6.8-103.8,11.1c-26.8,3.4-53,7-78.6,11
		c-21.9,3.4-43.7,7.1-65.5,11.1c-19.1,3.5-37.8,7.2-56,11c-31.3,6.6-62.3,14-93.2,22.1c-25.2,6.7-50.1,14-74.9,22.1
		c-20.8,6.8-41.4,14.1-61.7,22.1c-9,3.6-17.9,7.2-26.8,11.1c-8.4,3.6-16.5,7.3-24.3,11c-14.4,6.8-28.6,14.2-42.4,22.1
		c-6.2,3.6-12.2,7.2-18.2,11.1c-5.7,3.6-11.2,7.3-16.4,11c-5.2,3.7-10.1,7.3-14.8,11.1c-8.6,6.9-16.8,14.2-24.6,22.1
		c-6.7,6.9-12.8,14.3-18.4,22.1c-4.9,7-9.1,14.4-12.6,22.1c-2.8,6.2-4.9,12.7-6.5,19.4c-1.5,6.4-2.3,12.8-2.4,19.3
		c0,0.4-0.1,0.9-0.1,1.4c0,6,1,12,2.7,18c2,6.5,5,13,8.9,19.4c4,6.5,9,12.9,15,19.3c6.1,6.5,13.2,12.9,21.1,19.3
		c8.2,6.6,17.4,13,27.4,19.4c10.9,6.9,22.1,13.3,33.6,19.3c13.2,6.9,26.5,13.3,40.1,19.3c15.5,6.9,31.1,13.3,46.9,19.3
		c17.4,6.6,35.6,13.1,54.5,19.4c20.2,6.7,41.1,13.1,62.7,19.3c23.5,6.8,47.8,13.2,72.6,19.3c27.8,6.8,56.2,13.3,84.9,19.3
		c46.6,9.7,93.4,18.1,140.5,25.3c-21.3-1.8-42.6-3.8-63.9-6c-51.2-5.3-100.5-11.8-147.6-19.4c-35.2-5.6-70.2-12.1-105.1-19.3
		c-27.9-5.8-55.6-12.2-83.1-19.3c-22.9-5.9-45.8-12.3-68.4-19.3c-19.4-6-38.6-12.4-57.6-19.4c-16.4-6-32.7-12.4-48.7-19.3
		c-14-6-27.8-12.4-41.4-19.3c-12.4-6.3-24.1-12.7-35.1-19.3c-10.1-6-19.9-12.5-29.4-19.4c-8.4-6-16.4-12.5-24.1-19.3
		c-6.8-6-13.3-12.5-19.3-19.3c-5.6-6.4-10.6-12.8-14.8-19.4c-4-6.1-7.5-12.6-10.4-19.3c-2.7-6.2-4.8-12.7-6.2-19.3
		c-1.4-6.4-2.1-12.9-2.1-19.4l0-0.5c0-3.5,0.3-7,0.7-10.5c0.4-3.7,1.1-7.4,1.9-11.1c0.9-3.7,2-7.4,3.3-11c1.3-3.7,2.9-7.4,4.7-11.1
		c1.8-3.7,3.7-7.4,5.9-11c2.3-3.7,4.8-7.4,7.5-11.1c2.7-3.7,5.7-7.4,8.8-11.1c3.2-3.7,6.8-7.4,10.5-11c8-7.9,16.5-15.3,25.5-22.1
		c4.8-3.7,9.9-7.4,15.2-11.1c5.4-3.7,11-7.4,16.9-11c6-3.7,12.3-7.4,18.9-11.1c6.7-3.7,13.6-7.4,20.7-11.1
		c15.7-7.9,31.6-15.3,47.9-22.1c9.1-3.8,18.2-7.5,27.4-11c10-3.8,20.1-7.5,30.2-11.1c11-3.8,22.1-7.5,33.2-11.1
		c12.1-3.8,24.3-7.5,36.5-11c28.3-8.1,56.8-15.5,85.5-22.1c16.6-3.8,33.6-7.5,51-11.1c19-3.9,38.5-7.6,58.4-11.1
		c22.2-3.9,45-7.6,68.3-11c27.4-4,55.4-7.7,84-11.1C706.4,57.7,744.6,54,783.5,51L783.5,51z"/>
	<path fill="#FFFFFF" d="M1306.9,51H783.5c88.2-6.8,176.6-10.2,265-10.1C1136.4,40.9,1223,44.5,1306.9,51L1306.9,51z"/>
	<path fill="#FFFFFF" d="M1422,62H669.4c37.1-4.3,75.2-8,114.2-11h523.4C1345.9,54.1,1384.4,57.7,1422,62L1422,62z"/>
	<path fill="#FFFFFF" d="M1508.3,73.1h-923c27.4-4,55.4-7.7,84-11.1H1422C1451.3,65.4,1480.1,69.1,1508.3,73.1z"/>
	<path fill="#FFFFFF" d="M1579.6,84.1h-281.9c-34.1-1.4-68.2-2.1-102.4-2.1c-40.7,0-80.9,0.7-120.5,2.1H517.1c22.2-3.9,45-7.6,68.3-11
		h923C1532.5,76.5,1556.2,80.2,1579.6,84.1L1579.6,84.1z"/>
	<path fill="#FFFFFF" d="M1641.4,95.2h-184.2c-52.2-5.2-105.6-8.9-159.5-11.1h281.9C1600.6,87.6,1621.2,91.3,1641.4,95.2z M894,95.2
		H458.7c19-3.9,38.5-7.6,58.4-11.1h557.8C1012.8,86.2,952.3,90,894,95.2z"/>
	<path fill="#FFFFFF" d="M1696.1,106.2h-143.7c-31.6-4.2-63.4-7.9-95.1-11.1h184.2C1660,98.7,1678.2,102.4,1696.1,106.2L1696.1,106.2z
		 M790.2,106.2H407.7c16.6-3.8,33.6-7.5,51-11.1H894C858.6,98.3,823.9,102,790.2,106.2z"/>
	<path fill="#FFFFFF" d="M1745,117.3h-118.3c-24.4-3.9-49.2-7.6-74.4-11h143.7C1712.7,109.8,1729,113.5,1745,117.3z M711.5,117.3H362.7
		c14.6-3.8,29.6-7.5,45-11h382.5C763.9,109.5,737.7,113.2,711.5,117.3z"/>
	<path fill="#FFFFFF" d="M1789.7,128.3h-99.8c-21-4-42-7.6-63.1-11.1H1745C1760.2,120.8,1775.1,124.5,1789.7,128.3z M646.1,128.3h-324
		c13.5-3.9,27-7.6,40.5-11.1h348.9C689.7,120.6,667.9,124.3,646.1,128.3L646.1,128.3z"/>
	<path fill="#FFFFFF" d="M1830.4,139.3h-85.5c-18-3.8-36.4-7.5-55.1-11h99.8C1803.5,131.9,1817.1,135.6,1830.4,139.3z M590.1,139.3
		H285.7c12.1-3.8,24.3-7.5,36.5-11h324C627,131.8,608.3,135.5,590.1,139.3L590.1,139.3z"/>
	<path fill="#FFFFFF" d="M1867.9,150.4h-73.6c-16.1-3.8-32.7-7.5-49.4-11.1h85.5C1843.2,143,1855.7,146.6,1867.9,150.4L1867.9,150.4z
		 M540.8,150.4H252.5c11-3.8,22.1-7.5,33.2-11.1h304.4C573.3,142.9,556.9,146.6,540.8,150.4L540.8,150.4z"/>
	<path fill="#FFFFFF" d="M1902.5,161.5h-63.3c-14.9-3.9-29.8-7.5-44.8-11.1h73.6C1879.7,154,1891.2,157.7,1902.5,161.5z M496.8,161.5
		H222.3c10-3.8,20.1-7.5,30.2-11.1h288.3C525.8,154,511.1,157.6,496.8,161.5L496.8,161.5z"/>
	<path fill="#FFFFFF" d="M1934.3,172.5h-54.4c-13.3-3.8-26.9-7.4-40.7-11h63.3C1913.3,165.1,1924,168.8,1934.3,172.5L1934.3,172.5z
		 M457.5,172.5H194.8c9.1-3.8,18.2-7.5,27.4-11h274.6C483.4,165,470.3,168.7,457.5,172.5L457.5,172.5z"/>
	<path fill="#FFFFFF" d="M1963.8,183.5h-46.4c-12.5-3.8-25-7.5-37.5-11.1h54.4C1944.4,176.1,1954.3,179.8,1963.8,183.5z M421.9,183.5
		H169.7c8.3-3.8,16.7-7.5,25.1-11.1h262.7C445.4,176.1,433.5,179.8,421.9,183.5L421.9,183.5z"/>
	<path fill="#FFFFFF" d="M1990.9,194.6h-39.1c-11.2-3.7-22.6-7.4-34.4-11h46.4C1972.9,187.1,1981.9,190.8,1990.9,194.6z M389.7,194.6
		H146.9c7.5-3.8,15.1-7.5,22.7-11h252.2C410.9,187.1,400.1,190.8,389.7,194.6z"/>
	<path fill="#FFFFFF" d="M2015.9,205.6h-32.2c-10.6-3.8-21.2-7.5-31.9-11.1h39.1C1999.5,198.2,2007.8,201.9,2015.9,205.6z M360.2,205.6
		H126.2c6.7-3.7,13.6-7.4,20.7-11.1h242.7C379.6,198.2,369.7,201.9,360.2,205.6z"/>
	<path fill="#FFFFFF" d="M2038.9,216.7H2013c-9.7-3.8-19.5-7.5-29.3-11.1h32.2C2023.9,209.3,2031.5,213,2038.9,216.7L2038.9,216.7z
		 M333.4,216.7h-226c6-3.7,12.3-7.4,18.9-11.1h233.9C351,209.3,342,212.9,333.4,216.7L333.4,216.7z"/>
	<path fill="#FFFFFF" d="M2060,227.7h-20c-8.9-3.8-17.9-7.5-26.9-11h25.9C2046.2,220.3,2053.2,224,2060,227.7L2060,227.7z M309,227.7
		H90.5c5.4-3.7,11-7.4,16.9-11h226C325,220.3,316.9,224,309,227.7L309,227.7z"/>
	<path fill="#FFFFFF" d="M2079.2,238.8h-14.5c-8.2-3.8-16.5-7.5-24.8-11.1h20C2066.6,231.4,2073.1,235.1,2079.2,238.8z M286.8,238.8
		H75.3c4.8-3.7,9.9-7.4,15.2-11.1H309C301.6,231.3,294.1,234.9,286.8,238.8L286.8,238.8z"/>
	<path fill="#FFFFFF" d="M2096.6,249.8h-9.3c-7.5-3.8-15-7.5-22.6-11h14.5C2085.3,242.4,2091.1,246.1,2096.6,249.8z M266.6,249.8H61.7
		c4.3-3.7,8.8-7.4,13.6-11h211.5C279.8,242.4,273.1,246.1,266.6,249.8z"/>
	<path fill="#FFFFFF" d="M2112.3,260.8h-4.4c-6.8-3.8-13.6-7.5-20.5-11.1h9.3C2102.1,253.5,2107.3,257.2,2112.3,260.8z M248.4,260.8
		H49.8c3.8-3.7,7.7-7.4,11.9-11.1h204.9C260.3,253.4,254.2,257.1,248.4,260.8L248.4,260.8z"/>
	<path fill="#FFFFFF" d="M232,271.9H39.3c3.2-3.7,6.8-7.4,10.5-11h198.6C242.6,264.5,237.2,268.2,232,271.9z M2107.8,260.8h4.4
		c4.8,3.6,9.3,7.1,13.5,10.7C2119.9,267.8,2113.9,264.3,2107.8,260.8z"/>
	<path fill="#FFFFFF" d="M217.2,282.9H30.4c2.7-3.7,5.7-7.4,8.8-11.1h192.6C226.8,275.5,221.8,279.2,217.2,282.9L217.2,282.9z"/>
	<path fill="#FFFFFF" d="M204.1,294H22.9c2.3-3.7,4.8-7.4,7.5-11.1h186.7C212.6,286.6,208.2,290.3,204.1,294L204.1,294z"/>
	<path fill="#FFFFFF" d="M192.6,305H16.9c1.8-3.7,3.7-7.4,5.9-11h181.2C200.1,297.6,196.2,301.3,192.6,305z"/>
	<path fill="#FFFFFF" d="M182.7,316.1H12.2c1.3-3.7,2.9-7.4,4.7-11.1h175.6C189,308.7,185.8,312.4,182.7,316.1z"/>
	<path fill="#FFFFFF" d="M174.2,327.1H9c0.9-3.7,2-7.4,3.3-11h170.4C179.6,319.7,176.8,323.4,174.2,327.1z"/>
	<path fill="#FFFFFF" d="M167.2,338.2H7.1c0.4-3.7,1.1-7.4,1.9-11.1h165.2C171.6,330.8,169.3,334.5,167.2,338.2L167.2,338.2z"/>
	<path fill="#FFFFFF" d="M161.6,349.2H6.4l0-0.5c0-3.5,0.3-7,0.7-10.5h160.1C165.1,341.7,163.3,345.4,161.6,349.2z M155.1,368.5H8.5
		c-1.4-6.4-2.1-12.9-2.1-19.4h155.2C158.8,355.4,156.6,361.9,155.1,368.5z"/>
	<path fill="#FFFFFF" d="M152.8,387.9H14.7c-2.7-6.2-4.8-12.7-6.2-19.3h146.6C153.7,374.9,152.9,381.4,152.8,387.9z"/>
	<path fill="#FFFFFF" d="M155.5,407.2H25.1c-4-6.1-7.5-12.6-10.4-19.3h138.1c0,0.4-0.1,0.9-0.1,1.4
		C152.7,395.2,153.7,401.2,155.5,407.2z"/>
	<path fill="#FFFFFF" d="M164.4,426.5H39.9c-5.6-6.4-10.6-12.8-14.8-19.4h130.4C157.4,413.7,160.4,420.1,164.4,426.5z"/>
	<path fill="#FFFFFF" d="M179.4,445.9H59.2c-6.8-6-13.3-12.5-19.3-19.3h124.5C168.8,433.5,173.8,439.9,179.4,445.9L179.4,445.9z"/>
	<path fill="#FFFFFF" d="M200.5,465.2H83.3c-8.4-6-16.4-12.5-24.1-19.3h120.2C185.5,452.4,192.6,458.8,200.5,465.2z"/>
	<path fill="#FFFFFF" d="M227.9,484.5H112.7c-10.1-6-19.9-12.5-29.4-19.4h117.3C208.8,471.7,217.9,478.2,227.9,484.5L227.9,484.5z"/>
	<path fill="#FFFFFF" d="M261.5,503.8H147.7c-12.4-6.3-24.1-12.7-35.1-19.3h115.3C238.2,491.1,249.5,497.5,261.5,503.8z"/>
	<path fill="#FFFFFF" d="M301.6,523.1H189.1c-14-6-27.8-12.4-41.4-19.3h113.8C274.1,510.4,287.5,516.9,301.6,523.1L301.6,523.1z"/>
	<path fill="#FFFFFF" d="M348.6,542.5H237.9c-16.4-6-32.7-12.4-48.7-19.3h112.5C317.1,530,332.8,536.5,348.6,542.5z"/>
	<path fill="#FFFFFF" d="M403,561.8H295.5c-19.4-6-38.6-12.4-57.6-19.4h110.7C366,549.1,384.1,555.6,403,561.8z"/>
	<path fill="#FFFFFF" d="M465.8,581.1H363.9c-22.9-5.9-45.8-12.3-68.4-19.3h107.6C423.2,568.5,444.2,575,465.8,581.1L465.8,581.1z"/>
	<path fill="#FFFFFF" d="M538.3,600.5H447c-27.9-5.8-55.6-12.2-83.1-19.3h101.9C489.3,587.9,513.6,594.4,538.3,600.5L538.3,600.5z"/>
	<path fill="#FFFFFF" d="M623.2,619.8h-71c-35.2-5.6-70.2-12.1-105.1-19.3h91.3C566.1,607.3,594.5,613.8,623.2,619.8z"/>
	<path fill="#FFFFFF" d="M726.3,639.2h-26.5c-51.2-5.3-100.5-11.8-147.6-19.4h71C657.3,626.9,691.9,633.4,726.3,639.2z"/>
	<path fill="#FFFFFF" d="M699.8,639.2h26.5c12.5,2.1,24.9,4.1,37.4,6C742.4,643.4,721.1,641.4,699.8,639.2z"/>
	<path fill="#FFFFFF" d="M760.8,644.7h1.2l1.8,0.4C762.7,645,761.8,644.8,760.8,644.7z"/>
	<path fill="#FFFFFF" d="M729.7,639.7h13.1c6.4,1.7,12.7,3.3,19.1,5h-1.1C750.5,643.1,740.1,641.4,729.7,639.7L729.7,639.7z"/>
	<path fill="#FFFFFF" d="M700.8,634.7h23.5c6.2,1.7,12.4,3.3,18.6,5h-13.1C720.1,638.1,710.4,636.4,700.8,634.7z"/>
	<path fill="#FFFFFF" d="M673.6,629.8h32.5l18.1,5h-23.5C691.7,633.1,682.6,631.5,673.6,629.8L673.6,629.8z"/>
	<path fill="#FFFFFF" d="M647.9,624.8h40.6l17.7,5h-32.5C665,628.1,656.4,626.5,647.9,624.8z"/>
	<path fill="#FFFFFF" d="M623.4,619.8h47.8c5.7,1.7,11.5,3.3,17.2,5h-40.6C639.7,623.2,631.5,621.5,623.4,619.8z"/>
	<path fill="#FFFFFF" d="M600.2,614.9h54.3c5.6,1.7,11.2,3.3,16.8,5h-47.8C615.6,618.2,607.9,616.5,600.2,614.9L600.2,614.9z"/>
	<path fill="#FFFFFF" d="M577.9,609.9h60.3c5.4,1.7,10.8,3.3,16.3,5h-54.3C592.7,613.2,585.3,611.6,577.9,609.9z"/>
	<path fill="#FFFFFF" d="M556.6,604.9h65.7c5.3,1.7,10.5,3.3,15.9,5h-60.3C570.8,608.2,563.7,606.6,556.6,604.9z"/>
	<path fill="#FFFFFF" d="M536.1,599.9h70.8c5.1,1.7,10.3,3.4,15.5,5h-65.7C549.7,603.3,542.9,601.6,536.1,599.9z"/>
	<path fill="#FFFFFF" d="M516.6,595H592c4.9,1.7,9.9,3.3,14.8,4.9h-70.8C529.5,598.3,523,596.6,516.6,595L516.6,595z"/>
	<path fill="#FFFFFF" d="M497.6,590h79.9c4.8,1.7,9.7,3.4,14.6,5h-75.5C510.2,593.3,503.9,591.7,497.6,590L497.6,590z"/>
	<path fill="#FFFFFF" d="M479.4,585h84l14,5h-79.9C491.5,588.3,485.4,586.7,479.4,585z"/>
	<path fill="#FFFFFF" d="M461.9,580h87.9c4.5,1.7,9,3.3,13.6,5h-84C473.5,583.4,467.7,581.7,461.9,580z"/>
	<path fill="#FFFFFF" d="M445.1,575h91.5c4.4,1.7,8.7,3.3,13.2,5h-87.9C456.2,578.4,450.6,576.7,445.1,575z"/>
	<path fill="#FFFFFF" d="M428.8,570.1h95.1c4.2,1.7,8.4,3.3,12.7,5h-91.5C439.6,573.4,434.1,571.8,428.8,570.1z"/>
	<path fill="#FFFFFF" d="M413.1,565.1h98.4c4.1,1.7,8.2,3.3,12.4,5h-95.1C423.6,568.5,418.3,566.8,413.1,565.1z"/>
	<path fill="#FFFFFF" d="M398,560.2h101.6c3.9,1.7,7.9,3.3,11.9,5h-98.4C408,563.5,403,561.8,398,560.2L398,560.2z"/>
	<path fill="#FFFFFF" d="M383.4,555.2h104.7c3.8,1.7,7.6,3.3,11.5,5H398C393.1,558.5,388.3,556.8,383.4,555.2z"/>
	<path fill="#FFFFFF" d="M369.4,550.2h107.7c3.7,1.7,7.3,3.3,11.1,5H383.4C378.7,553.5,374,551.9,369.4,550.2z"/>
	<path fill="#FFFFFF" d="M355.9,545.2h110.5c3.5,1.7,7,3.3,10.6,5H369.4C364.9,548.6,360.4,546.9,355.9,545.2z"/>
	<path fill="#FFFFFF" d="M342.9,540.3h113.3c3.4,1.7,6.8,3.3,10.3,5H355.9C351.5,543.6,347.2,541.9,342.9,540.3z"/>
	<path fill="#FFFFFF" d="M330.3,535.3h116c3.2,1.7,6.5,3.3,9.9,5H342.9C338.6,538.6,334.5,537,330.3,535.3z"/>
	<path fill="#FFFFFF" d="M318.3,530.3h118.6c3.1,1.7,6.2,3.3,9.4,5h-116C326.3,533.7,322.3,532,318.3,530.3z"/>
	<path fill="#FFFFFF" d="M306.6,525.4h121.2c3,1.7,6,3.3,9,5H318.3C314.4,528.7,310.5,527.1,306.6,525.4z"/>
	<path fill="#FFFFFF" d="M295.4,520.4h123.7c2.8,1.7,5.7,3.3,8.7,5H306.6C302.9,523.7,299.2,522.1,295.4,520.4z"/>
	<path fill="#FFFFFF" d="M284.8,515.4h126.2c2.7,1.7,5.4,3.3,8.2,5H295.4C291.9,518.8,288.3,517.1,284.8,515.4L284.8,515.4z
		 M229.6,485.6h139.9c11.9,10.3,25.8,20.2,41.5,29.9H284.8C265.8,506.6,247.4,496.6,229.6,485.6z"/>
	<path fill="#FFFFFF" d="M189.5,455.8h152.1c7.3,10.2,16.7,20.2,27.9,29.8H229.6C214.1,475.9,200.6,465.9,189.5,455.8L189.5,455.8z"/>
	<path fill="#FFFFFF" d="M164,425.9h162.6c3,10.2,8,20.1,15,29.8H189.5C178.8,446,170.2,436,164,425.9z"/>
	<path fill="#FFFFFF" d="M153.2,396.1H324c-1.2,10-0.3,20.1,2.6,29.8H164C158,416.1,154.3,406.2,153.2,396.1z"/>
	<path fill="#FFFFFF" d="M155.6,366.3h176.7c-4.4,9.4-7.2,19.5-8.3,29.9H153.2c-0.3-2.3-0.4-4.6-0.4-6.9
		C152.7,381.5,153.7,373.8,155.6,366.3L155.6,366.3z"/>
	<path fill="#FFFFFF" d="M168.2,336.4h183.1c-7.6,9.1-14,19.1-19,29.8H155.6C158.4,355.8,162.6,345.7,168.2,336.4z"/>
	<path fill="#FFFFFF" d="M191.1,306.6h190.7c-11.1,8.9-21.4,18.9-30.5,29.8H168.2C174.2,326.3,181.8,316.4,191.1,306.6z"/>
	<path fill="#FFFFFF" d="M225.2,276.8h200c-15.2,8.9-29.7,18.9-43.4,29.9H191.1C201.6,295.7,213,285.7,225.2,276.8z"/>
	<path fill="#FFFFFF" d="M271.7,246.9h211.8c-20,8.8-39.4,18.8-58.3,29.8h-200C240,265.8,255.6,255.9,271.7,246.9L271.7,246.9z
		 M2071,246.9h10.7c15.1,7.5,29.9,15.7,44.1,24.6C2107.9,262.5,2089.6,254.2,2071,246.9z"/>
	<path fill="#FFFFFF" d="M332.3,217.1h228c-26.1,8.7-51.7,18.7-76.9,29.8H271.7C291.4,236,311.6,226,332.3,217.1L332.3,217.1z
		 M1983.9,217.1h30.2c22.9,8.9,45.5,18.9,67.5,29.8h-10.7C2042.4,235.7,2013.3,225.8,1983.9,217.1z"/>
	<path fill="#FFFFFF" d="M410.6,187.3h252.2c-34.6,8.5-68.8,18.5-102.5,29.8h-228C358,206.1,384.1,196.1,410.6,187.3z M1867.5,187.3
		h61.9c28.6,9,56.8,18.9,84.7,29.8h-30.2C1945.5,205.8,1906.6,195.8,1867.5,187.3z"/>
	<path fill="#FFFFFF" d="M512.2,157.4h296.6c-49.1,8-97.8,18-146,29.9H410.6C444.1,176.1,478,166.1,512.2,157.4L512.2,157.4z
		 M1703.9,157.4h119.4c35.7,8.9,71,18.8,106.1,29.9h-61.9C1813.3,175.5,1758.8,165.5,1703.9,157.4z"/>
	<path fill="#FFFFFF" d="M649.9,127.6h444c-101.4,5.2-197.4,15.4-285,29.8H512.2C557.8,145.9,603.7,135.9,649.9,127.6z M1398.9,127.6
		h287.2c48,9,94,19,137.2,29.8h-119.4C1607.6,143.1,1504,132.8,1398.9,127.6L1398.9,127.6z"/>
	<path fill="#FFFFFF" d="M865.8,97.8h616.9c70.6,7.6,138.9,17.8,203.3,29.8h-287.2c-51.1-2.5-102.2-3.8-153.4-3.8
		c-51.6,0-102.3,1.3-151.6,3.8h-444C717.2,115.4,789.6,105.3,865.8,97.8z M1482.8,97.8H865.8C969.5,87.6,1080.3,82,1195.3,82
		C1292.9,82,1389.9,87.8,1482.8,97.8L1482.8,97.8z"/>
	<path fill="#FFFFFF" d="M442.3,300.5h97.9l6.4,120.1h0.4l25.2-120.1h56.1l-35.7,170.4h-96.2l-7.3-123.5h-0.5l-25.8,123.5h-56.1
		L442.3,300.5z M815,350.8h-56.3l-25.2,120.1h-65.4l25.1-120.1H637l10.6-50.2h177.8L815,350.8z M1010.3,350.8h-56.4l-25.1,120.1
		h-65.3l25.1-120.1h-56.3l10.5-50.2h178L1010.3,350.8z M1248.7,409c0,37-24.7,64.2-60.5,64.2c-28.9,0-46.2-18.5-46.2-48.3
		c0-35.3,26-62.3,60.1-62.3C1229.6,362.6,1248.7,379.8,1248.7,409L1248.7,409z M1221.2,409.1c0-13.8-4.6-25.3-20.3-25.3
		c-20.9,0-31.2,24-31.2,43.2c0,13.9,5.5,24.9,20.7,24.9C1210.8,451.8,1221.2,427.2,1221.2,409.1z M1269.2,376.7
		c0.8-4.1,1.6-8.4,2.2-11.8h24.7l-2.4,14.2h0.4c7.1-10.8,18.8-16.5,31.2-16.5c12.1,0,24.5,7.3,25.9,20.1h0.3
		c6.8-13.9,21.5-20.1,35.8-20.1c15.2,0,28.1,12.8,28.1,28.8c0,9.5-2.3,20.1-4.5,28.7l-10.6,50.6h-26.3l10.5-51.5
		c1.4-6.5,3.4-16.3,3.4-22.7c0-7.8-5.7-12.7-12.3-12.7c-18.4,0-22.9,22.2-26.3,36.6l-10.4,50.3h-26.4l10.5-51.5
		c1.4-6.5,3.5-16.3,3.5-22.7c0-7.8-5.8-12.7-12.4-12.7c-17.9,0-22.9,22.5-26.3,36.6l-10.5,50.3h-26.4L1269.2,376.7L1269.2,376.7z
		 M1436.9,376.7c0.7-4.1,1.5-8.4,2.1-11.8h24.6l-2.3,14.2h0.4c7.1-10.8,18.8-16.5,31.1-16.5c12.2,0,24.5,7.3,26,20.1h0.3
		c6.8-13.9,21.5-20.1,35.7-20.1c15.3,0,28.3,12.8,28.3,28.8c0,9.5-2.3,20.1-4.5,28.7l-10.7,50.6h-26.5l10.6-51.5
		c1.3-6.5,3.4-16.3,3.4-22.7c0-7.8-5.7-12.7-12.4-12.7c-18.4,0-22.9,22.2-26.3,36.6l-10.4,50.3h-26.5l10.6-51.5
		c1.4-6.5,3.4-16.3,3.4-22.7c0-7.8-5.7-12.7-12.5-12.7c-17.9,0-22.8,22.5-26.2,36.6l-10.4,50.3h-26.5L1436.9,376.7L1436.9,376.7z
		 M1681.4,455.5c-1.2,6.5-2.2,12.1-2.5,15.2H1653l1.8-10.1h-0.4c-7.2,6.9-17.4,12.6-28.7,12.6c-20,0-33.2-12.8-33.2-33.8
		c0-8.1,1.9-16.4,3.2-23.1l10.7-51.4h26.5l-9.9,50c-1.4,7.3-2.9,14.3-2.9,22.2c0,8.9,5.9,14.8,14.4,14.8c18.4,0,25.1-17.8,28.4-33.7
		l10.8-53.3h26.6L1681.4,455.5L1681.4,455.5z M1717.3,380.2c1.3-6.4,2.2-11.9,2.6-15.2h25.9l-1.7,10.3h0.3
		c7.3-6.9,17.4-12.6,28.9-12.6c20,0,33.2,12.8,33.2,33.7c0,8-2.1,16.5-3.5,23l-10.6,51.4h-26.4l9.8-49.9c1.4-7.1,3-14.3,3-22.1
		c0-9-6.1-14.9-14.5-14.9c-18.3,0-25,17.9-28.3,33.7l-10.9,53.2h-26.3L1717.3,380.2L1717.3,380.2z M1835.7,364.9h26.5l-21.6,105.8
		h-26.5L1835.7,364.9L1835.7,364.9z M1845.4,319.3h26.5l-5.6,26.3h-26.5L1845.4,319.3z M1948.8,389.2c-5.1-3.5-11.9-5.4-19.3-5.4
		c-21.1,0-32.9,20.5-32.9,40.4c0,13.9,4.4,27.6,22.5,27.6c6.5,0,14.6-1.8,21.5-5.3l-3,21.8c-8.1,4.1-16.8,4.9-25.5,4.9
		c-26.2,0-43.2-18.3-43.2-45.6c0-36.9,23.5-64.9,60-64.9c9.8,0,19.3,1.7,26.4,4L1948.8,389.2L1948.8,389.2z M2018,454.6h-0.3
		c-9.1,12-18.2,18.7-32.7,18.7c-18.3,0-31.5-10.7-31.5-30.2c0-34.9,37.5-37.6,62.4-37.6h9.3c0.8-2.9,0.8-5.9,0.8-9.1
		c0-10.6-11.1-13.6-20.3-13.6c-11.7,0-22.9,3-33.4,8.1l3.7-22c11.4-4.1,22.6-6.2,34.5-6.2c20.4,0,39.6,7.7,39.6,32.4
		c0,14.3-10.1,55.8-12.5,75.7h-22.2L2018,454.6L2018,454.6z M1992.2,453.1c19.7,0,25.8-14.1,29.9-31.2h-9.2
		c-12.8,0-34.2,2.2-34.2,20.1C1978.7,449.5,1985.5,453.1,1992.2,453.1L1992.2,453.1z M2065.9,364.9h19l4.5-21.7l28.5-9.7l-6.6,31.4
		h23.7l-4.2,20.2h-23.6l-9.7,46.2c-0.7,3.4-1.1,6.8-1.2,10.2c0,6.4,4.1,10.3,10,10.3c4.8,0,9.6-1,12.9-2.4l-4.5,21.3
		c-4.5,1.1-9.6,2.5-14.2,2.5c-18,0-30.6-7.3-30.6-27.7c0-8.1,1.5-16.3,3.3-24.6l7.5-35.7h-19.2L2065.9,364.9L2065.9,364.9z
		 M2156.4,364.9h26.4l-21.6,105.8h-26.5L2156.4,364.9L2156.4,364.9z M2166.1,319.3h26.5l-5.6,26.3h-26.5L2166.1,319.3z M2294.2,409
		c0,37-24.6,64.2-60.6,64.2c-28.8,0-46.1-18.5-46.1-48.3c0-35.3,26-62.3,60.1-62.3C2275,362.6,2294.2,379.8,2294.2,409L2294.2,409z
		 M2266.5,409.1c0-13.8-4.6-25.3-20.1-25.3c-21,0-31.4,24-31.4,43.2c0,13.9,5.5,24.9,20.6,24.9
		C2256.3,451.8,2266.5,427.2,2266.5,409.1z M2316.7,380.2c1.2-6.4,2.2-11.9,2.6-15.2h25.8l-1.7,10.3h0.3
		c7.3-6.9,17.4-12.6,28.9-12.6c20,0,33.1,12.8,33.1,33.7c0,8-1.9,16.5-3.3,23l-10.7,51.4h-26.5l9.9-49.9c1.4-7.1,2.9-14.3,2.9-22.1
		c0-9-5.9-14.9-14.4-14.9c-18.4,0-25,17.9-28.5,33.7l-10.8,53.2h-26.5L2316.7,380.2z M2488.1,387.6c-7-2.6-14.3-4.9-21.8-4.9
		c-7.9,0-17.8,2.3-17.8,10.6c0,13.3,34.4,18.2,34.4,44.1c0,27.5-23.1,35.7-45.9,35.7c-10.6,0-21.3-1.7-31-6.3l5.7-21.9
		c7.5,4.3,15,8.2,25.2,8.2c8.9,0,18.2-3.1,18.2-11.8c0-17-34.4-18.6-34.4-45.2c0-24.8,23.2-33.5,44.1-33.5c9.7,0,19.5,1.7,28.8,4.2
		L2488.1,387.6L2488.1,387.6z M1142.2,355.8c-6.1-4.4-16.5-8.3-31.4-8.3c-13.1,0-41.7,8.6-51.5,42.9c-12.2,43.5,12.3,60.2,36.6,60.2
		c11.7,0,21.3-3.9,29.2-8.9l-4.8,27.7c-10.2,2.8-20.8,3.8-31.2,3.8c-41.7,0-70.8-32-58.4-82.8c11-45.6,44.8-65.6,78.7-65.6
		c13.8,0,28.4,1.9,40.4,7.1L1142.2,355.8L1142.2,355.8z"/>
</g>
</svg>