<?xml version="1.0" encoding="utf-8"?>
<svg version="1.1" id="图层_1" xmlns="http://www.w3.org/2000/svg"
    xmlns:xlink="http://www.w3.org/1999/xlink" x="0px" y="0px"
    viewBox="0 0 2500 686" style="enable-background:new 0 0 2500 686;" xml:space="preserve">

<g>
	<path fill="#FFFFFF"
            d="M442.1,92.2H155.4L0,604.4l192.4,1.8l48.1-164.5c0,0,312.5,61,373.5-144.3C669.5,105.3,442.1,92.2,442.1,92.2
		L442.1,92.2z M429.1,271.6c-20.4,83.1-153.6,57.4-153.6,57.4l35-118.4C310.7,210.6,449.5,190.2,429.1,271.6z" />
	<path fill="#FFFFFF"
            d="M1187.1,123.7l-53.6,116.6c0,0-109-103.5-258.9-16.6c-111,62.9-127.7,238.5-5.5,273.7
		c107.3,29.5,242.2-18.4,242.2-18.4L1004,591.8c0,0-136.8,53.6-269.9,0c-131.2-51.9-144.3-172-140.5-234.7
		C597.3,281.2,662,137,848.6,88.9C1046.5,36.8,1187.1,123.7,1187.1,123.7z M1680.9,88.7h179.3l-14.8,281l172-281H2156l20.4,286.6
		l131.2-286.6H2500l-281,512.2h-197.9l-3.8-236.7l-123.9,234.7h-223.8L1680.9,88.7L1680.9,88.7z" />
	<path fill="#FFFFFF"
            d="M1684.4,121.9L1629,240.3c0,0-107.3-103.5-258.9-18.4c-111,62.9-125.7,238.5-3.8,273.7
		c107.3,29.5,240.3-18.4,240.3-18.4l-105.5,114.6c0,0-138.7,51.9-269.9,0C1098,538.1,1086.9,418,1088.9,355.1
		c3.8-75.8,70.3-220.1,255.1-268.2C1542.1,35,1684.4,121.9,1684.4,121.9L1684.4,121.9z" />
</g>
</svg>