<?xml version="1.0" standalone="no"?>
<!DOCTYPE svg PUBLIC "-//W3C//DTD SVG 1.1//EN" "http://www.w3.org/Graphics/SVG/1.1/DTD/svg11.dtd">
<svg t="1677935736142" class="icon" viewBox="0 0 1920 1024" version="1.1"
    xmlns="http://www.w3.org/2000/svg" p-id="7136" xmlns:xlink="http://www.w3.org/1999/xlink"
    width="375" height="200">
    <path
        d="M457.152 404.928a58.4 58.4 0 1 1-13.12-116.096 58.4 58.4 0 0 1 13.12 116.096m222.432-155.2a74.112 74.112 0 0 1-47.488-93.312 74.112 74.112 0 0 1 140.864 45.952 74.016 74.016 0 0 1-93.376 47.36m257.728-73.76a89.792 89.792 0 0 1-1.472-126.88 89.728 89.728 0 1 1 1.472 126.88m251.072 15.2a105.344 105.344 0 1 1 196.48-76.064 105.344 105.344 0 0 1-196.48 76.064m248.192 104.832a126.464 126.464 0 1 1 252.928 0.032 126.464 126.464 0 0 1-252.928-0.032m-393.152 225.6c-99.968 0-172.48 72.608-172.48 172.544 0 78.816 44.832 158.368 144.928 158.368 26.272 0 49.728-5.568 70.56-16.96v14.4c0 38.304-8.672 73.76-71.84 73.76-14.656 0-28.544-2.24-41.088-5.824-15.808-4.672-30.688-12.352-45.408-19.744l-1.664-0.736a14.496 14.496 0 0 0-11.264 0.128 14.304 14.304 0 0 0-6.496 5.28 1159.808 1159.808 0 0 0-24.288 37.824l-1.888 5.568-0.224 2.208c0 4.448 1.952 8.48 4.96 11.328 6.592 6.08 14.752 10.816 22.624 15.104 2.304 1.248 4.672 2.4 7.04 3.52 24.288 12.032 59.936 23.584 107.264 23.584 50.624 0 90.688-14.304 118.944-42.592 34.912-34.912 34.912-70.08 34.912-114.496v-288.704l-2.752-1.312c-42.496-21.44-89.312-33.216-131.84-33.216z m43.008 240.864c-4.928 3.168-26.208 14.4-50.656 14.4-35.84 0-71.936-26.976-71.936-87.264 0-54.432 32.224-92.48 78.272-92.48 20.512 0 38.368 6.336 44.32 8.704v156.64m-589.984-217.408l-0.288-2.048a14.848 14.848 0 0 0-14.656-12.384h-63.072a14.944 14.944 0 0 0-14.912 14.944v292c0 8.256 6.656 14.976 14.912 14.976h63.072c7.392 0 13.472-5.44 14.656-12.512l0.256-2.24v-292.736M1856 450.016a14.848 14.848 0 0 0-14.784-14.016h-63.136a14.784 14.784 0 0 0-14.784 14.592v388.064a14.912 14.912 0 0 0 14.784 13.824h63.136c8 0 14.464-6.4 14.784-14.304v-388.16m-272.672 71.616c-89.536 0-154.528 72.256-154.528 171.808 0 102.048 62.944 168 160.32 168 54.976 0 96.32-20.064 111.648-28.8 3.136-1.6 11.648-9.28 4.256-23.712l-15.328-30.016c-4.16-8.064-9.92-9.792-13.984-9.792a17.792 17.792 0 0 0-7.136 1.696l-1.888 0.864c-24.256 10.88-47.168 16.128-69.952 16.128-24.672 0-45.216-7.84-59.328-22.752-12.512-13.248-18.048-30.08-18.336-42.08h209.12v-30.08c0.064-107.264-54.112-171.264-144.864-171.264z m-64.192 132.8c7.552-38.56 32.672-62.336 66.144-62.336 49.728 0 55.776 46.656 56.416 62.336h-122.56m-113.664 134.976c-3.648-9.92-10.848-11.328-14.912-11.328l-6.08 1.024c-9.056 2.368-17.408 3.52-26.24 3.52-33.856 0-36.672-24-36.672-50.72v-123.2h81.536a14.944 14.944 0 0 0 14.944-14.88V545.44a14.848 14.848 0 0 0-13.696-14.752l-0.992-0.16H1321.6v-79.68a14.88 14.88 0 0 0-14.912-14.88h-63.104a15.04 15.04 0 0 0-6.656 1.6 13.44 13.44 0 0 0-8.256 12.8v278.336c0 43.936 0 75.68 27.84 103.552 25.376 25.376 63.328 29.12 83.712 29.12 31.264 0 54.208-7.488 68.704-14.4 3.936-1.92 14.208-9.024 8.48-24.832l-11.936-32.768M197.504 565.6a86.976 86.976 0 0 1-16.32-9.632 32 32 0 0 1-8.832-9.376l-1.952-3.68-0.896-2.24a30.72 30.72 0 0 1-1.76-10.304 31.68 31.68 0 0 1 4.576-16.256c5.76-10.24 16.544-17.824 27.712-21.12 33.216-10.816 69.248-0.704 98.496 16.16l5.504 2.88a19.776 19.776 0 0 0 9.76 3.2 16.64 16.64 0 0 0 12.384-5.472l-0.064 0.096c10.72-12.96 27.776-39.104 28.064-39.552a17.12 17.12 0 0 0 0.416-17.152l-3.008-4-4.288-3.456c-45.632-31.68-104.288-42.464-158.656-33.6-31.712 5.376-62.496 19.68-84.288 43.648-35.136 37.76-42.4 99.392-14.976 143.552 19.168 31.04 51.808 50.4 84.512 64.576 24.096 11.328 50.56 18.656 72.96 33.472 12.096 7.36 20.224 20.672 20.224 35.936 0 16.544-9.952 30.656-22.976 37.568-7.04 3.744-13.952 6.688-21.76 8.288a105.088 105.088 0 0 1-23.68 1.76 169.792 169.792 0 0 1-13.376-1.024c-26.048-2.336-49.024-14.4-71.872-25.856l-1.792-0.8a15.84 15.84 0 0 0-12.096 0.096 16.768 16.768 0 0 0-7.072 5.728c-2.208 3.008-24.608 37.76-26.176 40.864l-2.048 5.952-0.16 2.4c0 4.8 2.08 9.184 5.344 12.256 22.72 19.168 51.776 29.856 80.352 36.864 47.424 10.112 99.232 9.28 143.04-12.928 73.472-33.76 97.824-142.976 42.112-202.56-37.088-38.912-90.176-54.08-137.408-76.288m638.464 198.912v-91.104c0.096-39.84 0.16-84.96-34.912-120.064-20.736-20.704-49.856-31.712-84.32-31.712-37.856 0-61.088 18.624-73.152 29.76v-5.824a18.56 18.56 0 0 0-0.576-3.84l-0.096-0.32-0.128-0.32-0.288-0.864-0.16-0.512-3.872-5.28-0.8-0.672-0.128-0.128-0.096-0.032a14.72 14.72 0 0 0-8.768-2.976h-63.136a14.912 14.912 0 0 0-14.88 14.944v292c0 8.224 6.656 14.912 14.88 14.912h63.136c7.392 0 13.44-5.44 14.656-12.48l0.256-2.24-0.032-58.816h0.032V620c8.096-5.6 31.424-18.304 55.2-18.304 13.824 0 24.8 3.648 31.776 10.624 10.752 10.72 12.544 30.528 12.544 70.88v154.336c0 8.224 6.688 14.912 14.88 14.912h63.104c7.36 0 13.472-5.44 14.656-12.48l0.256-2.24v-73.216l-0.032-0.032"
        fill="#ffffff" p-id="7137"></path>
</svg>