<svg width="745" height="444" viewBox="0 0 745 444" fill="none" xmlns="http://www.w3.org/2000/svg">
<path d="M121.455 40.4432C119.169 41.4786 116.531 41.6829 113.815 42.0914C103.509 43.5353 93.0064 44.3664 82.7005 45.3947C79.1831 45.8103 76.7069 45.606 76.3059 46.2258C74.4628 49.9377 78.156 107.102 78.5711 115.955C78.9932 123.597 79.1972 129.781 78.9932 131.451C78.7892 133.719 75.2648 135.987 70.5515 135.987C64.9799 135.987 54.47 133.514 50.5587 124.224C49.9699 122.552 49.6217 120.804 49.5246 119.033C47.6604 104.798 48.2794 63.3201 48.2794 49.3038C41.8849 49.7123 31.1639 50.5364 24.7834 50.5364C23.4059 50.5866 22.0267 50.5183 20.661 50.3321C13.4433 49.7264 0.703409 42.7112 0.0491765 36.3158C-0.569882 31.5756 4.78357 29.9204 8.91296 29.9204C10.9741 29.9204 13.4433 30.1247 16.1236 30.1247C16.8865 30.1499 17.6496 30.0813 18.3958 29.9204C30.1368 28.8851 52.1626 22.8771 87.857 22.8771C95.6726 22.8771 104.135 23.0813 113.182 23.9054C118.55 24.321 125.345 28.2441 125.971 34.0126C126.386 37.5554 123.917 39.6192 121.455 40.4432Z" fill="#FCFCFC"/>
<path d="M195.292 23.7223C185.19 26.0043 174.265 27.8567 169.967 28.6526C165.837 29.4767 162.531 30.3008 160.062 30.9206C158.655 42.2745 156.136 75.2938 154.694 89.7327C163.558 86.8449 169.53 83.9572 179.428 83.7529C192.625 83.5416 205.816 91.7964 206.231 96.1351C205.816 101.706 196.748 106.651 190.979 106.651H189.129C180.688 106.651 163.973 112.645 155.362 115.103C155.559 116.138 155.559 117.582 155.763 119.442C156.164 122.745 156.586 126.485 156.805 129.556C157.001 131.62 157.001 133.078 157.41 133.888C160.695 133.268 164.001 132.239 167.511 131.204C173.083 129.76 179.878 128.112 183.994 128.112C190.803 128.112 208.327 134.092 208.728 138.226C209.769 147.101 178.436 153.905 171.641 155.757C166.47 157.004 161.089 159.476 155.967 159.476C151.838 159.476 146.281 158.067 142.601 153.292C136.629 145.854 133.323 133.683 131.873 121.097C129.411 101.699 130.234 78.1746 131.676 59.1856C133.083 41.0278 134.983 27.406 135.194 25.7578C134.779 23.0743 132.914 20.6021 132.514 17.496C132.31 15.0308 132.914 10.6921 138.085 9.86799C148.384 8.4241 158.486 6.15614 166.928 4.28964C175.784 2.43724 183.811 0.993347 189.601 0.993347C194.328 0.993347 214.335 6.36039 214.926 14.8195C215.08 17.5312 205.999 21.2571 195.292 23.7223Z" fill="#FCFCFC"/>
<path d="M316.325 53.241C313.841 55.509 307.264 60.4534 299.645 66.4473C293.652 71.1946 286.856 76.5546 281.707 81.3018C289.121 87.7042 298.808 96.5718 301.488 98.8398C303.056 100.144 304.086 101.983 304.38 104.003C304.985 108.75 300.447 111.849 295.938 111.849C289.965 111.849 283.17 106.066 278.618 102.559C274.932 99.8752 271.204 96.7761 267.912 94.1066C263.381 97.8255 259.66 101.946 255.544 106.08C251.633 109.996 243.585 118.878 237.205 118.878C232.281 118.878 228.96 114.539 228.341 109.588C228.012 106.044 228.349 102.471 229.333 99.0511C231.38 93.2755 241.883 82.3301 247.258 76.9631C241.686 72.0327 226.449 60.6647 225.605 53.6495C225.204 50.3462 229.333 47.874 233.441 47.874C234.89 47.874 238.197 48.0782 240.244 49.7264C241.686 50.7618 252.407 57.3614 261.89 64.1794C270.951 54.6849 290.317 38.5908 294.447 35.4847C295.934 34.3197 297.795 33.7364 299.68 33.8436C307.299 33.8436 316.979 42.4999 317.802 48.4938C317.948 49.3457 317.89 50.22 317.633 51.0451C317.376 51.8702 316.928 52.6227 316.325 53.241Z" fill="#FCFCFC"/>
<path d="M363.38 121.956C343.176 121.956 328.748 105.658 326.701 89.1481C324.211 68.9195 338.245 34.4634 367.503 34.4634C371.196 34.4634 376.767 34.8719 381.101 38.788C389.76 39.2106 402.543 45.1904 405.216 67.2714C405.434 69.7507 405.835 72.6384 405.835 75.5192C406.046 96.5718 385.237 121.956 363.38 121.956ZM380.904 59.0166C379.459 58.4404 377.914 58.1579 376.359 58.1855C362.128 58.1855 346.673 79.8579 348.333 92.2401C348.734 95.5435 349.775 97.3959 353.257 97.3959C360.074 97.3959 370.38 90.7962 373.869 85.4221C378.195 78.3788 381.488 64.778 380.904 59.2067V59.0166Z" fill="#FCFCFC"/>
<path d="M546.663 118.033C547.283 125.879 535.133 128.971 530.385 128.971C528.521 128.971 526.052 128.767 523.99 127.527C518.834 124.224 504.624 110.194 490.807 96.5718C482.366 88.1198 473.706 79.4423 464.631 71.2157C465.651 92.057 466.495 126.309 465.651 135.184C465.454 138.487 463.189 141.579 458.856 141.579C450.414 141.579 440.931 130.021 440.108 123.632C438.87 112.694 441.782 51.7971 440.312 37.3301C439.911 31.7588 446.911 28.4554 452.271 28.4554C454.595 28.4701 456.873 29.1125 458.863 30.3149C461.55 32.3786 477.624 48.2684 493.284 63.954C503.787 74.519 514.733 85.2109 521.95 92.6346C521.106 72.2088 519.84 28.2582 521.95 15.6647C522.555 11.7485 525.841 10.3047 528.943 10.3047C538.229 10.3047 547.086 19.7991 548.331 28.0469C548.732 31.3502 548.732 36.4989 548.331 42.6971C547.078 67.8912 545.017 92.6487 546.663 118.033Z" fill="#FCFCFC"/>
<path d="M588.809 45.3947C585.502 47.0499 578.503 49.5292 573.754 49.5292C570.863 49.5292 566.537 48.2825 565.932 44.3664C565.109 37.7668 589.027 3.51486 595.4 0.824296C596.91 0.270081 598.506 -0.00901636 600.114 0.000222057C604.658 0.000222057 615.168 3.09226 615.991 9.48764C616.828 16.2986 597.25 41.063 588.809 45.3947Z" fill="#FCFCFC"/>
<path d="M732.458 47.6697C730.659 47.7271 728.877 47.2963 727.302 46.4231C725.895 45.606 723.194 44.782 718.241 44.782C692.684 44.782 642.969 63.5596 632.298 74.4979C634.865 75.2751 637.477 75.8937 640.12 76.3503C650.848 78.6183 691.038 86.8731 697.805 91.0005C701.323 93.0642 710.58 102.143 711.417 110.194C711.818 113.286 711.199 116.385 708.111 118.646C701.512 124.013 666.676 139.487 658.017 139.487C650.194 139.487 635.161 133.507 634.52 128.14C634.316 126.901 634.943 125.661 635.562 124.619C639.691 118.019 682.955 110.588 683.792 105.841C683.595 105.644 683.173 105.841 682.751 105.644C681.513 105.432 679.466 105.017 677.615 104.608C661.119 100.277 626.297 96.762 613.916 83.9713C611.243 81.2877 609.8 76.5405 609.378 72.8286C608.78 67.6659 609.378 60.2421 613.508 56.319C623.195 47.233 673.894 23.0954 712.219 23.0954C724.608 23.0954 734.913 26.8143 743.573 36.7173C744.272 37.6265 744.754 38.6844 744.98 39.8093C745.444 43.5353 737.608 47.6697 732.458 47.6697Z" fill="#FCFCFC"/>
<path d="M223.768 379.849C212.358 391.921 168.581 424.631 150.811 424.631C140.66 424.631 130.199 419.228 120.055 411.953C115.933 409.079 114.019 402.409 113.077 396.69C109.904 370.988 109.559 281.108 115.609 256.984C117.832 247.751 126.717 244.595 133.688 244.595C149.235 244.595 160.962 255.689 162.531 269.036C164.437 285.862 160.941 333.497 163.804 367.812C171.739 363.67 192.977 350.978 203.128 350.978C211.057 350.978 225.97 355.732 227.56 368.77C227.864 370.786 227.679 372.845 227.019 374.774C226.359 376.703 225.244 378.444 223.768 379.849Z" fill="#FCFCFC"/>
<path d="M415.754 432.569C410.682 438.908 399.898 444 390.703 444C386.89 444 379.919 443.38 374.847 437.661C370.401 432.569 359.933 386.85 357.077 376.046C334.249 380.8 305.723 385.251 293.645 386.85C288.882 395.746 282.234 419.567 276.198 424.941C272.716 428.124 267.947 428.772 262.875 428.772C254.946 428.772 238.133 425.251 236.558 410.671C233.04 382.406 307.285 257.9 316.17 253.477C325.841 248.671 336.455 246.067 347.249 245.849C355.811 245.849 365.638 248.666 369.444 256.013C385.912 285.538 414.15 387.787 417.639 417.672C418.568 423.363 418.272 429.392 415.754 432.569ZM339.926 285.538C337.38 285.848 326.286 317.297 314.861 341.42C326.164 338.717 337.599 336.601 349.121 335.081C346.898 319.206 341.516 285.538 339.926 285.538Z" fill="#FCFCFC"/>
<path d="M550.645 345.555C563.012 352.542 575.063 363.036 576.976 377.313C581.415 414.467 521.458 436.4 490.702 436.4C475.472 436.4 457.4 420.2 454.529 406.219C454.22 403.994 453.587 401.127 453.263 398.281C448.191 354.761 458.666 240.757 468.515 233.136C477.076 226.466 498.968 224.867 517.054 224.867C545.601 224.867 585.573 229.001 603.329 239.475C616.329 247.103 632.171 263.936 634.099 279.502C637.546 307.443 581.071 333.856 550.645 345.555ZM503.688 365.551C503.055 375.715 502.732 388.407 502.732 398.88C513.206 395.359 524.3 389.674 523.034 381.117C522.415 375.412 514.796 369.376 503.688 365.551ZM534.775 263.591C526.929 263.571 519.089 264.004 511.293 264.887C509.71 277.269 508.134 302.041 506.854 318.853C537.934 310.289 581.422 295.371 579.178 271.867C578.545 266.796 563.646 263.612 534.789 263.612L534.775 263.591Z" fill="#FCFCFC"/>
</svg>
